inDegrees=no
num_controls=7
num_derivatives=13
num_iterations=143
num_multipliers=7
num_parameters=0
num_slacks=7
num_states=26
objective=5.018067
objective_accelerations=0.448437
objective_balance=0.044331
objective_effort=0.245979
objective_height=4.215356
objective_ligament=0.063965
solver_duration=1595.526261
status=Solve_Succeeded
success=true
DataType=double
version=3
OpenSimVersion=4.4-2022-07-23-0e9fedc
endheader
time	/jointset/ground_pelvis/pelvis_tilt/value	/jointset/ground_pelvis/pelvis_tx/value	/jointset/ground_pelvis/pelvis_ty/value	/jointset/hip_l/hip_flexion_l/value	/jointset/hip_l/hip_adduction_l/value	/jointset/hip_l/hip_rotation_l/value	/jointset/back/lumbar_extension/value	/jointset/patellofemoral_l/patellar_flexion_l/value	/jointset/knee_l/knee_flexion_l/value	/jointset/knee_l/knee_adduction_l/value	/jointset/knee_l/knee_rotation_l/value	/jointset/ankle_l/ankle_angle_l/value	/jointset/subtalar_l/subtalar_angle_l/value	/jointset/ground_pelvis/pelvis_tilt/speed	/jointset/ground_pelvis/pelvis_tx/speed	/jointset/ground_pelvis/pelvis_ty/speed	/jointset/hip_l/hip_flexion_l/speed	/jointset/hip_l/hip_adduction_l/speed	/jointset/hip_l/hip_rotation_l/speed	/jointset/back/lumbar_extension/speed	/jointset/patellofemoral_l/patellar_flexion_l/speed	/jointset/knee_l/knee_flexion_l/speed	/jointset/knee_l/knee_adduction_l/speed	/jointset/knee_l/knee_rotation_l/speed	/jointset/ankle_l/ankle_angle_l/speed	/jointset/subtalar_l/subtalar_angle_l/speed	/forceset/tau_hip_flexion_l	/forceset/tau_hip_adduction_l	/forceset/tau_hip_rotation_l	/forceset/tau_knee_flexion_l	/forceset/tau_ankle_angle_l	/forceset/tau_subtalar_angle_l	/forceset/tau_lumbar_extension	lambda_cid13_p0	lambda_cid13_p1	lambda_cid13_p2	lambda_cid13_p3	lambda_cid13_p4	lambda_cid13_p5	lambda_cid14_p0	/jointset/ground_pelvis/pelvis_tilt/accel	/jointset/ground_pelvis/pelvis_tx/accel	/jointset/ground_pelvis/pelvis_ty/accel	/jointset/hip_l/hip_flexion_l/accel	/jointset/hip_l/hip_adduction_l/accel	/jointset/hip_l/hip_rotation_l/accel	/jointset/back/lumbar_extension/accel	/jointset/patellofemoral_l/patellar_flexion_l/accel	/jointset/knee_l/knee_flexion_l/accel	/jointset/knee_l/knee_adduction_l/accel	/jointset/knee_l/knee_rotation_l/accel	/jointset/ankle_l/ankle_angle_l/accel	/jointset/subtalar_l/subtalar_angle_l/accel	gamma_cid13_p0	gamma_cid13_p1	gamma_cid13_p2	gamma_cid13_p3	gamma_cid13_p4	gamma_cid13_p5	gamma_cid14_p0
1	-0.6040782032657636	-0.1161008240969886	0.6645269725495833	1.623261496393146	-0.4704189692424516	-0.1247860325907673	-0.2617981052854742	0.9859246460423575	0.9859246460421058	-0.1731490888416702	-0.1745316592913523	0.03137984448121112	-0.1104029278289637	-0.01572089503469474	0.01185712718220463	0.003139826793103358	-0.001904943988079162	-0.0006777896023062817	0.001594796299110434	2.632272705954847e-06	0.002040778484479864	0.002040778484479874	-0.001349239284701401	5.879687907192768e-06	0.02032389207842982	0.008895419682887113	-0.3440480361380436	0.0299677279216117	-0.002809899673162438	-0.2055762338392125	0.08613778636315765	0.06831912320726272	0.2892111917634514	-11.72159576904054	-29.71079014909963	6.790546884907021	-2.776843712784042	-617.6654146684828	-56.62238087999424	-17.40962803180776	2.03933047885534	0.5580617238648123	1.366701089547132	-5.909728508012473	0.2186681919931094	-1.841707154779521	-0.02353597910409293	-3.693792874776747	-3.693792874776732	-0.05036614464813003	-0.01152312881595159	-0.2423152474634795	0.1449851069025888	3.018179641525958e-09	9.057739332813685e-09	-6.75197702154372e-09	1.700719316751905e-09	-1.307309953779826e-09	9.906339848749751e-09	1.892071820879984e-09
1.01	-0.6041345710646104	-0.1159544374799678	0.664626543679953	1.622948544452881	-0.4704141605558413	-0.1248622883769742	-0.2617980799086196	0.9857605207790959	0.9857605207789401	-0.1731637134728181	-0.1745315826924185	0.03157104842576689	-0.1103059779329697	0.004444097746027341	0.0174209310560323	0.01677043249640867	-0.06067524274692652	0.001640472585402826	-0.01684364495177386	2.486589052064382e-06	-0.0348623718607882	-0.03486237186079072	-0.001576037759680087	9.161156066793152e-06	0.01791392051040403	0.01049424372820828	-0.3438926213076143	0.03003174196439916	-0.002802779447417549	-0.2054720332074318	0.08595674631283592	0.06829558473640035	0.2890939850846586	-11.76600321484646	-29.69591276696411	6.791739732985384	-2.8116746031851	-617.5005837754398	-56.6298613291711	-17.41711391316339	2.004597680252482	0.5556500108653946	1.360644048264329	-5.85915084979441	0.2385482046405787	-1.844568044304725	0.0117526605933992	-3.688056719995572	-3.688056719995918	-0.008890230444653622	0.006213599477413819	-0.2407843392682416	0.1672827969592852	-6.911946668533618e-10	1.736911330813582e-09	5.204885282527369e-09	3.47247850573209e-10	-6.174628444498751e-09	2.019958008641389e-08	-2.471484898272444e-09
1.02	-0.6039893861351348	-0.1157523907658637	0.6648623016148641	1.622048195467039	-0.4703861406528513	-0.1251228596624998	-0.2617980546838944	0.98522746789127	0.9852274678911969	-0.1731806167950913	-0.1745314813157051	0.03173806340908528	-0.1101930494477996	0.0245896506296153	0.02298914659884836	0.030377187701337	-0.1193843531047187	0.003964453672335251	-0.03526830356512834	2.601848968480485e-06	-0.07174474642980806	-0.07174474642981402	-0.001804977495523974	1.083521804779513e-05	0.01548609983053184	0.01209113751802801	-0.3437372064771511	0.03009575600721996	-0.002795659221934344	-0.2053678325756329	0.08577570626252085	0.06827204626558014	0.2889767784058901	-11.81558538780309	-29.68083558344209	6.793707424978102	-2.849407209497675	-617.4253252735164	-56.63934790345241	-17.44118458437399	2.035442499428544	0.5589440576624545	1.361930989871723	-5.897490827801389	0.2198119718378236	-1.8389506272735	-0.02348379039010131	-3.689637719527106	-3.689637719527273	-0.05079439682111987	-0.01184461005158055	-0.245885069832799	0.1445990558023349	-4.386882843750898e-09	-5.510013146069998e-09	1.698818702496284e-08	-9.349230656957437e-10	-1.08881144216223e-08	3.011460331308979e-08	-6.770805029776878e-09
1.03	-0.6036428490491461	-0.11549463106021	0.665233951277	1.620561180088486	-0.4703348319260339	-0.1255675645251559	-0.2617980345069213	0.9843257696115878	0.9843257696115857	-0.1731998235170179	-0.1745313870146682	0.03188068606075543	-0.1100641523573548	0.04471300175427016	0.02856431105783815	0.04394308642734727	-0.1779955529623042	0.006301072895310169	-0.05366579014055265	1.66387760578732e-06	-0.1085841869756345	-0.1085841869756397	-0.002035762599121463	7.164438460954929e-06	0.01303306544472483	0.01368977574998206	-0.3432540128435923	0.03016636766667293	-0.002792209169152647	-0.2052160437516578	0.08559603406087898	0.06824053773277139	0.2886336634491553	-11.84820608562927	-29.66811393175931	6.799302742171649	-2.902100868453771	-617.073091290563	-56.68826913615588	-17.4818688785203	2.000065275410614	0.5570296676766356	1.352467420610852	-5.839460825951308	0.2411547588682371	-1.839123370887538	0.01163574903463796	-3.679486602798697	-3.679486602798395	-0.009133560767699668	0.005250299189730465	-0.2458174163138481	0.167719202426863	-8.082431366245559e-09	-1.275618350535035e-08	2.876971774125917e-08	-2.216366425332964e-09	-1.560003067921937e-08	4.002576718251071e-08	-1.106946968589715e-08
1.04	-0.6030952216806255	-0.1151810743044342	0.665740969547725	1.618488747459121	-0.4702600434347121	-0.1261960393932044	-0.2617980167997579	0.983055999050316	0.9830559990503734	-0.1732213206887762	-0.1745313536990187	0.03199861740989787	-0.1099192242854831	0.06480770713598463	0.03414855662325055	0.05745090941910158	-0.2364678032684589	0.008660406571914216	-0.0720223046443989	2.107887996205363e-06	-0.1453592027489954	-0.1453592027489986	-0.002263067448253278	-1.361897044973907e-06	0.01054783932454757	0.01529733380333555	-0.3427708192099987	0.0302369793261617	-0.002788759116621283	-0.2050642549276655	0.08541636185924424	0.06820902920000757	0.2882905484924442	-11.88602722394673	-29.65518722348113	6.805671202463198	-2.95749719760586	-616.8107495803627	-56.7393353797228	-17.53913920482539	2.029713350840512	0.5607602789469075	1.350315843020524	-5.86970091751516	0.2243548625638389	-1.830756212957585	-0.02320739403959415	-3.676752765034091	-3.676752765033989	-0.05009834592789054	-0.01281572123498566	-0.2523234167069109	0.1463830200823921	-1.15953126834523e-08	-1.939662857225889e-08	4.049266458653631e-08	-3.327486984161355e-09	-2.017445093891229e-08	4.911529576587588e-08	-1.511320237845655e-08
